<svg id="glipy_copy_5" height="512" viewBox="0 0 64 64" width="512" xmlns="http://www.w3.org/2000/svg" xmlns:xlink="http://www.w3.org/1999/xlink" data-name="glipy copy 5"><linearGradient id="linear-gradient" gradientUnits="userSpaceOnUse" x1="2" x2="62" y1="32" y2="32"><stop offset="0" stop-color="#9cffac"/><stop offset="1" stop-color="#00b59c"/></linearGradient><path d="m32 2a30 30 0 1 0 30 30 30.03661 30.03661 0 0 0 -30-30zm19.12 31.77-4.91 3.69a.79059.79059 0 0 0 -.31.74l.87 6.06a2.22924 2.22924 0 0 1 -2.51 2.51l-6.06-.87a.78177.78177 0 0 0 -.74.31l-3.69 4.91a2.22394 2.22394 0 0 1 -3.54 0l-3.69-4.91a.78177.78177 0 0 0 -.74-.31l-6.06.87a2.22924 2.22924 0 0 1 -2.51-2.51l.87-6.06a.79059.79059 0 0 0 -.31-.74l-4.91-3.69a2.205 2.205 0 0 1 0-3.54l4.91-3.69a.79049.79049 0 0 0 .31-.74l-.87-6.06a2.22931 2.22931 0 0 1 2.51-2.51l6.06.87a.8033.8033 0 0 0 .74-.31l3.69-4.91a2.22387 2.22387 0 0 1 3.54 0l3.69 4.91a.8033.8033 0 0 0 .74.31l6.06-.87a2.22931 2.22931 0 0 1 2.51 2.51l-.87 6.06a.79049.79049 0 0 0 .31.74l4.91 3.69a2.22388 2.22388 0 0 1 0 3.54zm-4.85-3.23-3.63-2.73a.40079.40079 0 0 1 -.16-.38l.64-4.49a1.82344 1.82344 0 0 0 -2.06-2.06l-4.5.64a.41526.41526 0 0 1 -.37-.16l-2.73-3.63a1.83884 1.83884 0 0 0 -2.93 0l-2.73 3.63a.39559.39559 0 0 1 -.37.16l-4.49-.64a1.83459 1.83459 0 0 0 -2.07 2.06l.65 4.49a.42305.42305 0 0 1 -.16.38l-3.64 2.73a1.8403 1.8403 0 0 0 0 2.92l3.64 2.73a.42293.42293 0 0 1 .16.38l-.65 4.49a1.83464 1.83464 0 0 0 2.07 2.06l4.49-.64a.39551.39551 0 0 1 .37.16l2.73 3.63a1.83877 1.83877 0 0 0 2.93 0l2.73-3.63a.41517.41517 0 0 1 .37-.16l4.5.64a1.82752 1.82752 0 0 0 2.06-2.06l-.64-4.49a.40069.40069 0 0 1 .16-.38l3.63-2.73a1.8345 1.8345 0 0 0 0-2.92zm-.85 1.78-3.64 2.73a1.82813 1.82813 0 0 0 -.72 1.72l.65 4.49a.34216.34216 0 0 1 -.12.33.33245.33245 0 0 1 -.33.12l-4.5-.64a1.79222 1.79222 0 0 0 -1.71.71l-2.73 3.64a.39811.39811 0 0 1 -.64 0l-2.72-3.64a1.847 1.847 0 0 0 -1.73-.71l-4.49.64a.35127.35127 0 0 1 -.34-.12.36414.36414 0 0 1 -.11-.33l.64-4.49a1.82111 1.82111 0 0 0 -.71-1.72l-3.64-2.73a.4.4 0 0 1 0-.64l3.64-2.73a1.82116 1.82116 0 0 0 .71-1.72l-.64-4.49a.39017.39017 0 0 1 .45-.45l4.49.64a1.80034 1.80034 0 0 0 1.72-.71l2.73-3.64a.39818.39818 0 0 1 .64 0l2.72 3.64a1.81747 1.81747 0 0 0 1.72.71l4.5-.64a.3901.3901 0 0 1 .45.45l-.65 4.49a1.82818 1.82818 0 0 0 .72 1.72l3.64 2.73a.4163.4163 0 0 1 0 .64z" fill="url(#linear-gradient)"/></svg>